PathFileType	4	(X/Y/Z)	Patient4_TMGait_0pt4_02_right_12.trc.trc
DataRate	CameraRate	NumFrames	NumMarkers	Units	OrigDataRate	OrigDataStartFrame	OrigNumFrames
75.268817204301	75.268817204301	4	33	mm	75.268817204301	53	       141
Frame#	Time	Sacral			L.Shoulder			Chest			R.Shoulder			Neck			R.ASIS			L.ASIS			R.Thigh.Superior			R.Thigh.Lateral			R.Thigh.Inferior			R.Patella			L.Thigh.Superior			L.Thigh.Lateral			L.Thigh.Inferior			L.Patella			L.Shank.Superior			L.Shank.Lateral			L.Shank.Inferior			R.Shank.Superior			R.Shank.Lateral			R.Shank.Inferior			R.Heel			R.Midfoot.Superior			R.Midfoot.Lateral			R.Toe			L.Heel			L.Midfoot.Lateral			L.Midfoot.Superior			L.Toe			L.Elbow			L.Wrist			R.Elbow			R.Wrist			
		X1	Y1	Z1	X2	Y2	Z2	X3	Y3	Z3	X4	Y4	Z4	X5	Y5	Z5	X6	Y6	Z6	X7	Y7	Z7	X8	Y8	Z8	X9	Y9	Z9	X10	Y10	Z10	X11	Y11	Z11	X12	Y12	Z12	X13	Y13	Z13	X14	Y14	Z14	X15	Y15	Z15	X16	Y16	Z16	X17	Y17	Z17	X18	Y18	Z18	X19	Y19	Z19	X20	Y20	Z20	X21	Y21	Z21	X22	Y22	Z22	X23	Y23	Z23	X24	Y24	Z24	X25	Y25	Z25	X26	Y26	Z26	X27	Y27	Z27	X28	Y28	Z28	X29	Y29	Z29	X30	Y30	Z30	X31	Y31	Z31	X32	Y32	Z32	X33	Y33	Z33	

53	16.060857142857	852.579599518116	1011.683403462412	507.599708829103	1031.633697251133	1436.637838317614	315.982515068290	1143.242275019541	1366.538473897003	470.078152767762	1074.031416479718	1443.177389712067	648.800224751342	1032.256899552864	1498.803072842051	471.137490565367	1087.064186859265	944.092376790934	610.883932619935	1056.794156450344	967.299006034212	338.234690924829	1110.242556603241	737.433492706135	580.291854177818	1022.278416861967	633.981865176924	643.346196485514	1092.085058787725	576.796102196827	561.046571311754	1085.767895200068	491.982203917214	566.443407249423	1139.916757364037	786.982225484057	356.973247300946	1091.995591543800	660.251925687978	277.587812375370	1201.203247377995	601.256595555663	327.929805382452	1219.098835201373	518.328709229423	318.853152482498	1167.960139798846	444.876314661700	312.691935690731	1040.510251616987	368.262168681241	270.228633264936	1067.985596923604	238.906192931936	319.757302544378	1056.512506792330	404.049580973110	573.605574045896	983.672546329006	301.837347734012	637.043083571203	1022.022757738355	206.501575899606	570.142308597722	885.842219436999	42.985344383714	538.091718883427	1056.531201010238	96.538161316962	576.116521736035	968.268457413766	36.996317167732	613.973212212796	1176.764814486867	43.161286324441	604.659605145170	907.823358040428	122.705991408857	366.526492047049	967.845810073166	98.330850114361	279.825073822788	1067.374475278565	135.290563361841	295.151297384772	1169.994286036681	51.736215386559	254.252970367530	944.982243278553	1094.020708690629	204.391204425969	978.554431227421	836.849081471295	169.318893769165	1090.486393386812	1124.178149575932	814.513809691433	1335.827646286005	1100.126561575047	768.244929437332	
54	16.074142857143	851.396493964616	1012.483604721963	509.076755096788	1030.179577508316	1437.019135460031	317.106500844100	1143.214917297490	1366.196243649179	469.833227202721	1076.269115010444	1442.810133814371	649.423843254578	1032.924030589539	1498.841032111447	472.378348020116	1086.224773359159	943.728840300482	610.665933326683	1054.425093425646	967.675087485050	338.251011581871	1107.174136650447	736.865468439979	579.971875506596	1018.790510206960	634.002445875909	643.677266575019	1087.684135578182	576.320958826407	561.109996676034	1080.835591313765	491.811666874085	566.688430572920	1137.085571202249	787.571272071456	356.974291355342	1089.520546342473	660.877572120519	277.349515711353	1198.363362017707	601.994615238990	328.413197560307	1217.487420667646	520.820187962092	318.920301292246	1170.104327226796	446.831225463369	312.087714257498	1047.793940497443	362.832144897670	269.325160999035	1083.760545626609	234.962704109516	317.764327199103	1051.445946610158	404.009290760276	573.879203566231	978.490822878730	301.869828685226	637.297822481119	1016.775143974691	206.498527063241	570.351975920789	880.501126137405	42.977000825091	538.213614865487	1051.199288976532	96.487228658907	576.177350441476	962.917365031424	36.974338857114	614.037470632454	1171.397113511377	43.114892651727	604.713948255026	932.002269637152	107.905958511609	364.407030666453	993.027952426700	88.508490670176	277.141326868332	1089.921172331654	131.831829156743	292.334755738955	1197.648131224317	55.950643193372	250.168100809202	937.623059599384	1095.552840380120	207.053198435557	967.195883598230	837.978573873231	171.284000372074	1099.135029894601	1124.083257870238	814.351951357659	1344.220555058617	1107.693660110753	764.483471353617	
55	16.087428571429	850.252423711834	1013.087631595413	510.345403288400	1028.810372311917	1437.248967742409	318.072567847740	1143.158975886803	1365.703794435135	469.496446477095	1078.314549891017	1442.257456457040	649.894346952788	1033.579610247295	1498.714957591245	473.457579136576	1085.385883952402	943.270508566285	610.330221254274	1052.165058286146	967.825046380584	338.141020901942	1104.269222688751	736.270270949093	579.586631885672	1015.519559065081	633.943447583312	643.937799556992	1083.534987702283	575.810199351135	561.117328335810	1076.154102495045	491.579568235098	566.890143657223	1133.987021714977	787.479233789500	356.888295546875	1086.560353779727	660.987450957604	276.975241604303	1194.760406029106	601.926193964478	329.107013851411	1215.060698320886	522.743691639692	319.225133417258	1171.589290402372	448.511582999411	311.620522485090	1055.142058254471	357.224322827107	268.164240388508	1099.553459137602	231.393446742735	315.738172849655	1046.580648056697	403.892137167999	574.093238703787	973.484619727094	301.850517631066	637.461850333065	1011.632469590044	206.430398308723	570.505528467835	875.157639274784	42.959120320166	538.311629100984	1045.870233203989	96.429897569485	576.213666010303	957.571559071886	36.953767992009	614.093083666741	1166.035640972251	43.064725768114	604.763396360640	956.835846007097	93.908225990618	361.870737366592	1018.911134069389	79.424071657912	274.297507872647	1112.752906099078	128.999730742931	289.602368023744	1225.307904550206	60.972100255588	246.712004956845	930.916479498516	1096.920560481181	209.517503073408	956.688904257078	839.016549739247	173.146341296170	1107.657129460362	1123.701658711529	813.655716891944	1352.267163078181	1114.717881911661	760.345978730833	
56	16.100714285714	849.150920390615	1013.507439961311	511.414705253936	1027.564402123187	1437.328461224975	318.847369688267	1143.089346697525	1365.067993980791	469.056548185706	1080.165845964970	1441.546529736110	650.191461387037	1034.236485163880	1498.439419275797	474.335851194239	1084.548794765871	942.732471297989	609.888015973173	1050.007330135127	967.756712209568	337.910812966380	1101.558606911490	735.648173401111	579.143782013639	1012.485142170495	633.806001402246	644.115998139890	1079.656334301869	575.263194447862	561.054602840083	1071.741076709736	491.285857847522	567.023803330766	1130.668836683811	786.787656128844	356.742315997259	1083.209815179824	660.664760703169	276.463141873366	1190.549336732267	601.180169763048	329.951993729274	1211.985954368639	524.177676408208	319.742199984818	1172.491493062093	449.988608940287	311.306983204888	1062.508007171547	351.723873521787	266.771358600552	1115.062319072718	228.455839918305	313.783323661131	1041.925131759992	403.692429476620	574.226083801375	968.667297861972	301.780305442506	637.530252045569	1006.602132750302	206.298563250595	570.596041601360	869.812699838688	42.932602667436	538.388967460973	1040.543518069747	96.366407304005	576.224460037907	952.230158251177	36.935289870620	614.141742084097	1160.680122574177	43.017447057358	604.810092532074	981.762455847624	81.280109575689	359.023887078904	1044.974713958969	71.467217310902	271.455717931421	1135.418111230275	127.019410987345	287.120441214501	1252.418714209667	66.782552583841	244.180689276877	924.880201810340	1098.099910371216	211.737605180392	947.071535231577	839.928982489894	174.881036411791	1116.004581869216	1123.063876222068	812.421266078183	1359.947160933934	1121.145219857064	755.860798823138	
